#!OML:ASF F:\VICON\USERDATA\INSTALL\rory3\rory3.ASF
:FULLY-SPECIFIED
:DEGREES
100
root 0.47072413007498987 17.77051358255639 8.572281295068647 7.9206653665542195 -1.3582269137030172 -1.83647817793055
lfemur -15.081920592449425 8.55598293854876 -17.616065049851407
ltibia 20.16217535164691
lfoot -10.873788997969488 6.299620056434182
ltoes -7.433249057580898
rfemur -15.694603615222 -2.0681929150901297 20.229849726332354
rtibia 22.58742311894732
rfoot -14.637713170599495 -0.37110848581850897
rtoes 10.034201922726407
lowerback -2.934469112070204 0.10429226053520174 -0.01860722219767219
upperback 1.5703065809626082 0.02413110050456263 1.2960310338673457
thorax 4.237879355807484 0.03247017638252668 1.3659423088311275
lowerneck -11.660608226114947 0.14705823884857366 -2.1132394278344013
upperneck 29.72698097374696 0.3701804732281271 1.5133059480632862
head 11.992940355422263 0.06928876061539122 0.9403767875666156
lclavicle -1.8053639433126406e-15 1.6129940985588575e-16
lhumerus -25.058917044023847 -4.453119285398523 88.64689922078315
lradius 21.836517640733984
lwrist 7.829661441541827
lhand -23.653924471196127 -5.068859988180233
lfingers 7.125019999999999
lthumb 2.811542857473671 24.891245599228114
rclavicle -1.8053639433126406e-15 1.6129940985588582e-16
rhumerus -25.041240994039235 -14.513944302624033 -79.71034844493562
rradius 26.18417860296045
rwrist 35.600812259795234
rhand -16.720055571813518 -26.394472218036622
rfingers 7.125019999999999
rthumb 9.505236065059746 -56.16287985724631
101
root 0.47692660581858565 17.744351631200967 8.13588059618778 8.134414464811714 -1.3454816236313136 -1.8389039009058021
lfemur -15.835200276100787 8.521932019886505 -17.653781989413478
ltibia 21.010009612418653
lfoot -10.875134822596392 6.443103485637402
ltoes -7.708740258865194
rfemur -16.407401419659102 -2.089057968822144 20.196803485037734
rtibia 23.48260894761869
rfoot -14.59473550748657 -0.6406111153909979
rtoes 9.870668820677661
lowerback -2.5849591668675385 0.11017519393586028 -0.015885550836514273
upperback 1.7076116715132028 0.03138663844602832 1.3331254528404957
thorax 4.090855071234076 0.03552001814367883 1.3980812517988734
lowerneck -11.713431958333071 0.16428293813068567 -2.1168703997365546
upperneck 29.227212454371564 0.4167425362387644 1.45201776627831
head 11.809772444079067 0.08154267519123223 0.9261722394756852
lclavicle -1.7719539030222127e-15 2.0574808652162765e-16
lhumerus -24.919885019139898 -4.782529863932516 88.77956592976314
lradius 21.83135110767295
lwrist 7.947765464544612
lhand -23.67552186209959 -5.095227986100588
lfingers 7.125019999999999
lthumb 2.7906837727947953 24.864763387945136
rclavicle -1.7719539030222127e-15 2.0574808652162765e-16
rhumerus -25.041231196236343 -14.131453680555936 -79.65125906450528
rradius 26.21915638044203
rwrist 35.492925535804886
rhand -16.69296679072823 -26.345226153083267
rfingers 7.125019999999999
rthumb 9.531375461318737 -56.112243289820235
102
root 0.4806348375746141 17.70146842160703 7.69101150858301 8.389066572334155 -1.3417503076149109 -1.8542823575692027
lfemur -16.328646665185794 8.509694902804632 -17.724990650870645
ltibia 21.52820867786021
lfoot -11.28333114108682 6.579917188891574
ltoes -7.868327384999038
rfemur -16.857659811809267 -2.087616857443709 20.279283809713696
rtibia 23.95542705138239
rfoot -15.056275363816749 -0.7837707802311118
rtoes 9.428671999728497
lowerback -2.4551747893068385 0.11221261321328849 -0.048434518808816995
upperback 1.7473998432075568 0.03277010933639063 1.3436548104085837
thorax 4.001860132107041 0.036560229327787894 1.4160024284049333
lowerneck -11.828304281167972 0.15549809626174865 -2.1008459511676914
upperneck 28.83705816812507 0.40020202941593147 1.4187436131829236
head 11.684190103663788 0.07806493766166975 0.912430458176475
lclavicle -1.803706260913364e-15 1.636166684666064e-16
lhumerus -24.96209416481505 -4.995091274982411 88.85845951320252
lradius 21.845684993971766
lwrist 8.064402050070358
lhand -23.67711583504991 -5.080342166538537
lfingers 7.125019999999999
lthumb 2.7891423564394873 24.879399420064356
rclavicle -1.803706260913364e-15 1.636166684666064e-16
rhumerus -24.895463776173077 -13.973083131828654 -79.7352295951071
rradius 26.46862491128323
rwrist 35.25435223634114
rhand -16.708300732638538 -26.334662087880588
rfingers 7.125019999999999
rthumb 9.516572336399088 -56.10071443718676
103
root 0.4844706089979503 17.669714898188662 7.132047184853603 8.552504943296551 -1.3381557287788897 -1.8478698932272826
lfemur -17.033121779364357 8.491546347311527 -17.790937913143626
ltibia 22.21121855729963
lfoot -11.270839070456601 6.6769709177339065
ltoes -8.11952098680842
rfemur -17.562484727065833 -2.0927007999384903 20.239234780042274
rtibia 24.67439368146092
rfoot -14.997998720540505 -0.9954905620812307
rtoes 9.281802075179796
lowerback -2.163108825200126 0.11694899840550815 -0.045319131796974776
upperback 1.866421078714193 0.039930030029505875 1.3690351235852085
thorax 3.837444049073159 0.038320153731906226 1.4331019871253834
lowerneck -11.87669903562729 0.17068680689239407 -2.107222876575546
upperneck 28.384496115698393 0.4397536899116332 1.3556310755720347
head 11.51518075214402 0.08808661594950498 0.8989816522074976
lclavicle -1.8047968873676834e-15 1.6228777959256362e-16
lhumerus -25.117595553675685 -5.295242684121927 88.91033346230975
lradius 21.847112042352226
lwrist 8.178177934926213
lhand -23.702568511254956 -5.088136839355789
lfingers 7.125019999999999
lthumb 2.7645600909178367 24.871066204532685
rclavicle -1.8047968873676834e-15 1.6228777959256362e-16
rhumerus -25.01336965463863 -13.676504605464363 -79.65980520451097
rradius 26.53339968386704
rwrist 35.09951056558185
rhand -16.669949775587686 -26.301056030446404
rfingers 7.125019999999999
rthumb 9.553573297129322 -56.065438999828395
